<?xml version="1.0" encoding="UTF-8" standalone="no" ?>
<!DOCTYPE svg PUBLIC "-//W3C//DTD SVG 1.1//EN" "http://www.w3.org/Graphics/SVG/1.1/DTD/svg11.dtd">
<svg xmlns="http://www.w3.org/2000/svg" xmlns:xlink="http://www.w3.org/1999/xlink" version="1.1" width="1080" height="1080" viewBox="0 0 1080 1080" xml:space="preserve">
<desc>Created with Fabric.js 5.2.4</desc>
<defs>
</defs>
<g transform="matrix(1 0 0 1 540 540)" id="1a297e43-1047-4ee9-9b05-a532034c59f5"  >
<rect style="stroke: none; stroke-width: 1; stroke-dasharray: none; stroke-linecap: butt; stroke-dashoffset: 0; stroke-linejoin: miter; stroke-miterlimit: 4; fill: rgb(255,255,255); fill-rule: nonzero; opacity: 1; visibility: hidden;" vector-effect="non-scaling-stroke"  x="-540" y="-540" rx="0" ry="0" width="1080" height="1080" />
</g>
<g transform="matrix(1 0 0 1 540 540)" id="779d2f57-9d8f-484e-8038-1800a5b627ff"  >
</g>
<g transform="matrix(1 0 0 1 540 540)" id="31f04853-9aa6-4c7f-8bbf-10a824570df0"  >
<path style="stroke: rgb(0,0,0); stroke-width: 0; stroke-dasharray: none; stroke-linecap: butt; stroke-dashoffset: 0; stroke-linejoin: miter; stroke-miterlimit: 4; fill: rgb(224,23,5); fill-rule: nonzero; opacity: 1;" vector-effect="non-scaling-stroke"  transform=" translate(-420.98, -297.4)" d="M 694.27 126.98 L 521.26 464.59 L 357.46 464.59 L 429.04999999999995 326.56999999999994 L 425.74999999999994 326.56999999999994 C 365.55999999999995 404.7099999999999 275.69999999999993 456.16999999999996 147.68999999999994 467.8299999999999 L 147.68999999999994 328.49 C 147.68999999999994 328.49 229.55999999999995 323.64 277.7199999999999 273.04 L 147.75 273.04 L 147.75 126.98 L 296.41999999999996 126.98 L 293.85999999999996 247.15 L 297.15999999999997 247.15 L 356.86999999999995 126.98 L 475.06999999999994 126.98 L 467.3999999999999 246.41000000000003 L 470.69999999999993 246.41000000000003 L 532.5999999999999 126.98000000000002 L 694.27 126.98000000000002 z" stroke-linecap="round" />
</g>
<g transform="matrix(NaN NaN NaN NaN 0 0)"  >
<g style=""   >
</g>
</g>
<g transform="matrix(NaN NaN NaN NaN 0 0)"  >
<g style=""   >
</g>
</g>
</svg>